<?xml version="1.0" standalone="no"?><!DOCTYPE svg PUBLIC "-//W3C//DTD SVG 1.1//EN" "http://www.w3.org/Graphics/SVG/1.1/DTD/svg11.dtd"><svg t="1771643576209" class="icon" viewBox="0 0 1024 1024" version="1.1" xmlns="http://www.w3.org/2000/svg" p-id="1686" xmlns:xlink="http://www.w3.org/1999/xlink" width="200" height="200"><path d="M512 0C229.904516 0 0 229.904516 0 512s229.904516 512 512 512 512-229.904516 512-512S794.095484 0 512 0zM256.990968 245.099355c17.837419-12.552258 42.941935-8.588387 55.494193 9.249032l49.548387 69.367742c12.552258 17.837419 8.588387 42.28129-9.249032 55.494194a40.365419 40.365419 0 0 1-55.494193-9.249033l-49.548388-69.367742a40.101161 40.101161 0 0 1 9.249033-55.494193z m116.934193 510.67871l-52.190967 25.104516c-5.285161 2.642581-11.230968 3.963871-17.176775 3.963871a40.96 40.96 0 0 1-21.140645-5.945807 40.299355 40.299355 0 0 1-18.498064-33.692903V504.072258h-47.566452c-21.80129 0-39.63871-17.837419-39.63871-39.63871s17.837419-39.63871 39.63871-39.638709h87.205161c21.80129 0 39.63871 17.837419 39.63871 39.638709v218.012904a39.63871 39.63871 0 0 1 29.729032 73.331613z m384.495484-8.588388H641.486452v26.425807c0 21.80129-17.837419 39.63871-39.63871 39.63871s-39.63871-17.837419-39.63871-39.63871v-26.425807H451.88129c-21.80129 0-39.63871-17.837419-39.638709-39.638709s17.837419-39.63871 39.638709-39.63871h110.327742V627.612903H466.415484c-21.80129 0-39.63871-17.837419-39.63871-39.638709s17.837419-39.63871 39.63871-39.63871h95.793548v-3.303226c0-21.80129 17.837419-39.63871 39.63871-39.63871s39.63871 17.837419 39.63871 39.63871v3.303226h95.793548c21.80129 0 39.63871 17.837419 39.63871 39.63871s-17.837419 39.63871-39.63871 39.638709H641.486452v40.299355h116.934193c21.80129 0 39.63871 17.837419 39.63871 39.63871s-17.837419 39.63871-39.63871 39.638709z m18.498065-232.547096h-5.945807c-3.303226 0-85.223226-13.873548-165.16129-40.299355-78.616774 35.674839-131.468387 41.620645-157.894194 41.620645-11.230968 0-17.176774-1.32129-19.158709-1.32129a39.63871 39.63871 0 0 1 14.534193-77.956129s21.140645 1.981935 62.100645-9.249033c-14.534194-9.249032-23.122581-15.855484-24.443871-16.516129a39.770839 39.770839 0 0 1-6.606451-55.494193c13.212903-17.176774 38.317419-19.819355 55.494193-6.606452 0 0 29.729032 21.80129 72.010323 40.299355 0 0 0.660645 0 1.32129-0.660645 37.656774-19.15871 62.76129-38.978065 78.616774-56.154839H465.754839c-21.80129 0-39.63871-17.837419-39.63871-39.63871s17.837419-39.63871 39.63871-39.638709h284.077419c11.230968 0 22.461935 4.624516 29.729032 13.873548 7.267097 8.588387 11.230968 19.819355 9.249033 31.050323-1.32129 7.267097-12.552258 64.743226-88.526452 122.219355 45.584516 11.230968 81.259355 16.516129 81.92 17.176774 21.80129 3.303226 36.335484 23.783226 33.032258 45.584516a39.63871 39.63871 0 0 1-38.978064 33.692903z" p-id="1687" fill="#1296db"></path></svg>